This is a curious and little-known film from Saura's best period. Co-scripted by Rafael Azcona, the film is virtually a two-hander about a husband and wife (Per Oscarsson and Geraldine Chaplin) discovering role playing to supplement their apparently repressed sex life and going a little bit too far. There is a shade of Virginia Woolf here, and more than a shade of the later Buñuel (who learned most of his tricks from Azcona, anyway). However, what Buñuel does with a sledge-hammer and schoolboy glee, Saura does with subtlety and bitter irony.


_______________________________________________


General 
Complete name : La madriguera (1969).avi 
Format/Info : Audio Video Interleave 
File size : 1.17 GiB 
Duration : 1h 38mn 
Overall bit rate : 1 697 Kbps 

Video 
ID : 0 
Format : MPEG-4 Visual 
Format profile : Advanced Simple@L5 
Format settings, BVOP : Yes 
Format settings, QPel : No 
Format settings, GMC : No warppoints 
Format settings, Matrix : Default (MPEG) 
Codec ID : XVID 
Codec ID/Hint : XviD 
Duration : 1h 38mn 
Bit rate : 1 495 Kbps 
Width : 704 pixels 
Height : 368 pixels 
Display aspect ratio : 1.913 
Frame rate : 25.000 fps 
Color space : YUV 
Chroma subsampling : 4:2:0 
Bit depth : 8 bits 
Scan type : Progressive 
Compression mode : Lossy 
Bits/(Pixel*Frame) : 0.231 
Stream size : 1.03 GiB (88%) 
Writing library : XviD 64 

Audio 
ID : 1 
Format : AC-3 
Format/Info : Audio Coding 3 
Mode extension : CM (complete main) 
Codec ID : 2000 
Duration : 1h 38mn 
Bit rate mode : Constant 
Bit rate : 192 Kbps 
Channel(s) : 2 channels 
Channel positions : Front: L R 
Sampling rate : 48.0 KHz 
Bit depth : 16 bits 
Compression mode : Lossy 
Stream size : 135 MiB (11%) 
Alignment : Split accross interleaves 
Interleave, duration : 40 ms (1.00 video frame) 
Interleave, preload duration : 500 ms 